<svg width="196" height="60" viewBox="0 0 196 60" fill="none" xmlns="http://www.w3.org/2000/svg">
<path d="M23.4081 45.3857H18.6522V31.1179H5.25593V45.3857H0.5V12.5922H5.25593V26.7355H18.6522V12.5922H23.4081V45.3857Z" fill="#BBBBBB"/>
<path d="M46.1669 45.3857H28.6372V12.5922H46.1669V16.9747H33.3931V26.6359H46.1669V31.0183H33.3931V41.0033H46.1669V45.3857Z" fill="#BBBBBB"/>
<path d="M73.2085 12.5922L63.1737 33.5581V45.3857H58.4427V33.5581L48.3333 12.5922H53.637L60.8082 27.9805L67.9297 12.5922H73.2085Z" fill="#BBBBBB"/>
<path d="M107.944 32.861C106.998 36.7288 105.006 39.8413 101.968 42.1985C98.9571 44.5531 95.2325 45.8092 91.4105 45.7592C86.6296 45.7592 82.5543 44.1075 79.1845 40.8041C75.8147 37.5007 74.1381 33.4669 74.1547 28.7026C74.1547 23.9218 75.823 19.8963 79.1596 16.6261C82.4962 13.3559 86.5466 11.7207 91.3109 11.7207C94.1801 11.6972 97.011 12.3814 99.5528 13.7128C102.065 15.0658 104.19 17.0369 105.728 19.4398C106.846 21.0428 107.602 22.8694 107.944 24.7933H99.1793C98.5814 23.1406 97.5069 21.7022 96.0917 20.6599C94.6983 19.6191 93.0001 19.0676 91.2611 19.0912C88.6963 19.0912 86.6047 20.0125 84.9613 21.9049C83.3179 23.7973 82.5211 26.0134 82.5211 28.6528C82.4715 31.1567 83.3394 33.5922 84.9613 35.5004C85.7326 36.4304 86.7046 37.1735 87.8044 37.6738C88.9041 38.1741 90.103 38.4185 91.3109 38.3888C93 38.414 94.6517 37.8897 96.017 36.8948C97.4017 35.8458 98.4912 34.4561 99.1793 32.861H107.944Z" fill="white"/>
<path d="M139.816 45.1367H130.728L129.134 40.3808H117.78L116.037 45.1367H107.073L120.195 12.3432H126.793L139.816 45.1367ZM126.943 33.7325L123.581 22.5274H123.432L120.07 33.7325H126.943Z" fill="white"/>
<path d="M195.842 45.1367H187.475V32.0143H176.768V45.1367H168.402V12.3432H176.768V24.6688H187.475V12.3432H195.842V45.1367Z" fill="white"/>
<path d="M99.1794 32.9854C98.4846 34.5765 97.3963 35.9647 96.0171 37.0193C94.6518 38.0142 93.0001 38.5385 91.311 38.5133C90.1031 38.543 88.9043 38.2986 87.8045 37.7983C86.7047 37.298 85.7327 36.5549 84.9614 35.6249C83.5713 34.002 82.7341 31.9786 82.571 29.848L74.1548 29.2255C74.2544 33.8238 75.931 37.7248 79.1846 40.9286C82.4382 44.1324 86.5136 45.7758 91.4106 45.8588C95.3946 45.8588 98.9055 44.6885 101.968 42.323C105.031 39.9575 106.998 36.845 107.944 32.9854H99.1794Z" fill="url(#paint0_linear_3721_1594)"/>
<path d="M126.719 33.1598L126.943 33.857H120.07L120.444 32.6867L112.351 32.0891L107.073 45.2612H116.061L117.78 40.5053H129.159L130.753 45.2612H139.816L135.259 33.8072L126.719 33.1598Z" fill="url(#paint1_linear_3721_1594)"/>
<path d="M187.475 37.7165V45.2612H195.842V38.339L187.475 37.7165Z" fill="url(#paint2_linear_3721_1594)"/>
<path d="M168.402 45.2613H176.768V36.9197L168.402 36.2972V45.2613Z" fill="url(#paint3_linear_3721_1594)"/>
<path d="M155.653 50.4156V44.9375C157.472 44.6107 159.182 43.841 160.633 42.6965C162.724 41.0033 163.795 38.5133 163.795 35.2016C163.795 32.8444 163.148 30.9768 161.853 29.599C160.533 28.2295 158.641 26.9596 156.126 25.8142L155.055 25.3411L153.462 24.619L151.943 23.8471C151.425 23.6069 150.933 23.3149 150.474 22.9756C150.171 22.7494 149.903 22.481 149.677 22.1788C149.457 21.7571 149.353 21.2843 149.378 20.8093C149.366 20.4575 149.437 20.1078 149.584 19.788C149.731 19.4682 149.95 19.187 150.225 18.9667C150.781 18.476 151.5 18.2097 152.241 18.2197C153.213 18.2197 153.935 18.4936 154.358 19.0414C154.781 19.5892 155.503 20.5603 155.653 21.5812L163.521 21.4069C163.499 20.2108 163.323 19.0224 162.998 17.8711C162.645 16.8025 162.087 15.8129 161.355 14.9578C160.315 13.7115 158.967 12.7587 157.446 12.1938C156.953 11.9488 156.435 11.7568 155.902 11.6211V6.29251H148.681V11.7705C147.175 12.2121 145.765 12.9298 144.522 13.8871C142.182 15.655 141.011 17.9956 141.011 20.884C141.011 23.2495 141.734 25.1419 143.153 26.5861C144.572 28.0303 146.514 29.2504 149.029 30.2713L151.943 31.5164L153.287 32.114C153.642 32.3063 153.983 32.5226 154.308 32.7614C154.707 33.0602 155.827 32.7116 156.001 33.11C156.176 33.5084 155.678 33.9815 156.076 34.2803C157.022 35.0522 156.4 37.3928 155.777 38.0153" fill="white"/>
<path d="M162.127 29.9227C160.832 28.5283 158.94 27.2833 156.425 26.1379L155.329 25.6648L153.735 24.9427L152.217 24.1708C151.702 23.9248 151.21 23.6332 150.747 23.2993C150.445 23.0731 150.177 22.8047 149.951 22.5025C149.731 22.0808 149.627 21.608 149.652 21.133C149.645 20.7794 149.72 20.4291 149.871 20.1094C150.023 19.7897 150.246 19.5094 150.523 19.2904C151.072 18.8034 151.782 18.5372 152.515 18.5434C153.511 18.5434 154.209 18.8173 154.657 19.3651C155.105 19.9129 155.379 20.7097 155.528 21.7306H163.82C163.778 20.5344 163.595 19.3474 163.272 18.1948C162.929 17.1271 162.379 16.1372 161.654 15.2815C160.598 14.035 159.245 13.0757 157.719 12.4926C157.133 12.268 156.535 12.0768 155.927 11.9199V6.61621H149.004V12.0942C147.491 12.5356 146.073 13.2532 144.821 14.2108C142.505 15.9787 141.335 18.3193 141.335 21.2077C141.335 23.5732 142.032 25.4656 143.452 26.9098C144.871 28.354 146.838 29.5741 149.353 30.595L152.266 31.8401L153.586 32.4377C153.944 32.6241 154.286 32.8407 154.607 33.0851C154.989 33.3422 155.298 33.6939 155.503 34.106C155.681 34.5225 155.766 34.9729 155.752 35.4257C155.765 35.843 155.69 36.2584 155.531 36.6447C155.372 37.0309 155.134 37.3792 154.831 37.6667C154.532 37.9597 154.178 38.1899 153.789 38.3439C153.4 38.4978 152.984 38.5723 152.565 38.5631C151.445 38.5631 150.598 38.1398 150.025 37.2434C149.436 36.3045 149.133 35.2143 149.154 34.106H140.837V35.1518C140.837 38.5382 141.958 41.1029 144.174 42.8957C145.587 44.0203 147.24 44.8042 149.004 45.1865V50.7393H155.927V45.2612C157.749 44.9445 159.461 44.1737 160.907 43.0202C163.023 41.327 164.069 38.837 164.069 35.5253C164.069 33.1681 163.422 31.3006 162.127 29.9227Z" fill="url(#paint4_linear_3721_1594)"/>
<path d="M155.927 11.9448V6.61621H149.004V12.0942C147.497 12.5308 146.086 13.249 144.846 14.2108C142.506 15.9787 141.335 18.3193 141.335 21.2077C141.335 23.5732 142.057 25.4656 143.452 26.9098L143.726 27.1588L149.702 21.7057C149.672 21.5162 149.655 21.3248 149.652 21.133C149.645 20.7794 149.72 20.4291 149.871 20.1094C150.023 19.7897 150.246 19.5094 150.523 19.2904C151.08 18.7997 151.799 18.5334 152.54 18.5434L153.138 18.5932L159.089 13.1649C158.655 12.9048 158.196 12.6879 157.719 12.5175C157.14 12.2746 156.54 12.083 155.927 11.9448Z" fill="#7EE52A"/>
<path opacity="0.5" d="M141.199 8.37882L139.421 10.1571L141.196 11.9319L142.974 10.1536L141.199 8.37882Z" fill="white"/>
<path d="M152.64 45.6596C151.397 45.6559 150.159 45.497 148.955 45.1865V50.7143H155.927V45.2861C154.849 45.5388 153.746 45.6641 152.64 45.6596Z" fill="url(#paint5_linear_3721_1594)"/>
<path d="M152.665 11.5962C151.43 11.6 150.2 11.7589 149.004 12.0693V6.5166H155.927V11.9199C154.854 11.6977 153.76 11.5892 152.665 11.5962Z" fill="url(#paint6_linear_3721_1594)"/>
<defs>
<linearGradient id="paint0_linear_3721_1594" x1="91.0545" y1="45.8688" x2="91.0545" y2="29.223" gradientUnits="userSpaceOnUse">
<stop offset="0.18" stop-color="#BBBDBF"/>
<stop offset="0.37" stop-color="#CCCCCC"/>
<stop offset="1" stop-color="#E3E3E3"/>
</linearGradient>
<linearGradient id="paint1_linear_3721_1594" x1="123.442" y1="45.2538" x2="123.442" y2="32.0891" gradientUnits="userSpaceOnUse">
<stop offset="0.18" stop-color="#BBBDBF"/>
<stop offset="0.37" stop-color="#CCCCCC"/>
<stop offset="1" stop-color="#E3E3E3"/>
</linearGradient>
<linearGradient id="paint2_linear_3721_1594" x1="191.666" y1="45.2538" x2="191.666" y2="37.719" gradientUnits="userSpaceOnUse">
<stop offset="0.18" stop-color="#BBBDBF"/>
<stop offset="0.37" stop-color="#CCCCCC"/>
<stop offset="1" stop-color="#E3E3E3"/>
</linearGradient>
<linearGradient id="paint3_linear_3721_1594" x1="172.595" y1="45.2538" x2="172.595" y2="36.2897" gradientUnits="userSpaceOnUse">
<stop offset="0.18" stop-color="#BBBDBF"/>
<stop offset="0.37" stop-color="#CCCCCC"/>
<stop offset="1" stop-color="#E3E3E3"/>
</linearGradient>
<linearGradient id="paint4_linear_3721_1594" x1="152.461" y1="50.7293" x2="152.461" y2="6.6187" gradientUnits="userSpaceOnUse">
<stop offset="0.03" stop-color="#40BE61"/>
<stop offset="1" stop-color="#6FDE0D"/>
</linearGradient>
<linearGradient id="paint5_linear_3721_1594" x1="150.063" y1="46.5934" x2="152.351" y2="47.9579" gradientUnits="userSpaceOnUse">
<stop offset="0.03" stop-color="#1C9B3F"/>
<stop offset="1" stop-color="#45C258"/>
</linearGradient>
<linearGradient id="paint6_linear_3721_1594" x1="151.758" y1="8.86717" x2="154.53" y2="10.5181" gradientUnits="userSpaceOnUse">
<stop offset="0.31" stop-color="#7EE52A"/>
<stop offset="0.84" stop-color="#5DC620"/>
</linearGradient>
</defs>
</svg>
